{
	"patcher" : 	{
		"fileversion" : 1,
		"rect" : [ 530.0, 151.0, 305.0, 230.0 ],
		"bglocked" : 0,
		"defrect" : [ 530.0, 151.0, 305.0, 230.0 ],
		"openrect" : [ 0.0, 0.0, 0.0, 0.0 ],
		"openinpresentation" : 0,
		"default_fontsize" : 12.0,
		"default_fontface" : 0,
		"default_fontname" : "Arial",
		"gridonopen" : 0,
		"gridsize" : [ 5.0, 5.0 ],
		"gridsnaponopen" : 0,
		"toolbarvisible" : 1,
		"boxanimatetime" : 200,
		"imprint" : 0,
		"enablehscroll" : 1,
		"enablevscroll" : 1,
		"devicewidth" : 0.0,
		"boxes" : [ 			{
				"box" : 				{
					"maxclass" : "newobj",
					"text" : "route symbol",
					"id" : "obj-3",
					"fontsize" : 12.0,
					"outlettype" : [ "", "" ],
					"patching_rect" : [ 120.0, 55.0, 79.0, 20.0 ],
					"fontname" : "Arial",
					"numinlets" : 1,
					"numoutlets" : 2
				}

			}
, 			{
				"box" : 				{
					"maxclass" : "newobj",
					"text" : "print udpsender",
					"id" : "obj-2",
					"fontsize" : 12.0,
					"patching_rect" : [ 165.0, 135.0, 94.0, 20.0 ],
					"fontname" : "Arial",
					"numinlets" : 1,
					"numoutlets" : 0
				}

			}
, 			{
				"box" : 				{
					"maxclass" : "newobj",
					"text" : "in 1",
					"id" : "obj-1",
					"fontsize" : 12.0,
					"outlettype" : [ "" ],
					"patching_rect" : [ 120.0, 25.0, 30.0, 20.0 ],
					"fontname" : "Arial",
					"numinlets" : 1,
					"numoutlets" : 1,
					"saved_object_attributes" : 					{

					}

				}

			}
, 			{
				"box" : 				{
					"maxclass" : "newobj",
					"text" : "prepend host",
					"id" : "obj-24",
					"fontsize" : 12.0,
					"outlettype" : [ "" ],
					"patching_rect" : [ 120.0, 85.0, 81.0, 20.0 ],
					"fontname" : "Arial",
					"numinlets" : 1,
					"numoutlets" : 1
				}

			}
, 			{
				"box" : 				{
					"maxclass" : "newobj",
					"text" : "r udpsender",
					"id" : "obj-51",
					"fontsize" : 12.0,
					"outlettype" : [ "" ],
					"patching_rect" : [ 20.0, 60.0, 75.0, 20.0 ],
					"fontname" : "Arial",
					"numinlets" : 0,
					"numoutlets" : 1
				}

			}
, 			{
				"box" : 				{
					"maxclass" : "newobj",
					"text" : "udpsend 192.168.1.130 10000",
					"id" : "obj-32",
					"fontsize" : 12.0,
					"patching_rect" : [ 95.0, 190.0, 173.0, 20.0 ],
					"fontname" : "Arial",
					"numinlets" : 1,
					"numoutlets" : 0
				}

			}
 ],
		"lines" : [ 			{
				"patchline" : 				{
					"source" : [ "obj-24", 0 ],
					"destination" : [ "obj-2", 0 ],
					"hidden" : 0,
					"midpoints" : [  ]
				}

			}
, 			{
				"patchline" : 				{
					"source" : [ "obj-24", 0 ],
					"destination" : [ "obj-32", 0 ],
					"hidden" : 0,
					"midpoints" : [  ]
				}

			}
, 			{
				"patchline" : 				{
					"source" : [ "obj-51", 0 ],
					"destination" : [ "obj-32", 0 ],
					"hidden" : 0,
					"midpoints" : [  ]
				}

			}
, 			{
				"patchline" : 				{
					"source" : [ "obj-1", 0 ],
					"destination" : [ "obj-3", 0 ],
					"hidden" : 0,
					"midpoints" : [  ]
				}

			}
, 			{
				"patchline" : 				{
					"source" : [ "obj-3", 0 ],
					"destination" : [ "obj-24", 0 ],
					"hidden" : 0,
					"midpoints" : [  ]
				}

			}
 ]
	}

}
